<?xml version="1.0" standalone="no"?>
<!DOCTYPE svg PUBLIC "-//W3C//DTD SVG 20010904//EN"
 "http://www.w3.org/TR/2001/REC-SVG-20010904/DTD/svg10.dtd">
<svg version="1.0" xmlns="http://www.w3.org/2000/svg"
 width="1016.000000pt" height="1016.000000pt" viewBox="0 0 1016.000000 1016.000000"
 preserveAspectRatio="xMidYMid meet">
<metadata>
Created by potrace 1.11, written by Peter Selinger 2001-2013
</metadata>
<g transform="translate(0.000000,1016.000000) scale(0.100000,-0.100000)"
fill="#000000" stroke="none">
<path d="M3785 7508 c-121 -33 -202 -94 -250 -188 -46 -90 -53 -150 -55 -443
-1 -149 -1 -285 0 -302 1 -16 2 -37 1 -45 0 -8 0 -40 0 -70 0 -30 0 -62 0 -70
0 -8 0 -37 0 -65 1 -27 0 -57 0 -65 -1 -8 -1 -28 0 -45 1 -16 1 -36 0 -42 -1
-7 -1 -19 -2 -25 -2 -22 0 -581 1 -613 1 -16 2 -37 1 -45 -1 -38 0 -187 2
-205 1 -11 7 -29 14 -40 10 -17 23 -19 142 -19 72 0 132 -2 132 -5 1 -3 2 -63
3 -133 2 -109 0 -128 -14 -129 -8 -1 -55 -3 -105 -4 -49 -2 -112 -6 -140 -10
-27 -4 -84 -8 -125 -10 -280 -11 -589 -176 -800 -426 -8 -9 -23 -26 -32 -38
-9 -11 -25 -35 -34 -53 -9 -18 -20 -35 -23 -38 -19 -16 -95 -194 -111 -263 -6
-23 -13 -51 -16 -62 -2 -11 -7 -31 -9 -45 -7 -41 -13 -63 -25 -95 -15 -40 -15
-189 1 -245 6 -25 13 -52 14 -60 13 -94 37 -200 47 -206 4 -3 8 -13 8 -22 0
-30 84 -185 144 -266 68 -92 179 -206 256 -263 137 -100 258 -152 470 -199 14
-3 135 -8 270 -10 290 -5 259 -5 290 -1 14 1 39 0 56 -4 18 -3 37 -3 44 1 6 4
28 4 48 0 20 -3 52 -3 70 1 17 3 32 4 32 0 0 -7 260 -5 267 3 3 2 15 1 28 -4
13 -5 26 -6 29 -2 8 7 113 5 126 -3 6 -4 10 -2 10 3 0 5 17 6 38 3 20 -4 46
-6 57 -5 24 3 63 4 90 4 40 -1 140 -1 155 0 8 0 24 0 35 0 11 -1 27 -1 35 0 8
0 24 0 35 0 11 -1 27 -1 35 0 8 0 26 0 40 -1 14 0 32 0 40 0 8 0 31 1 50 0 19
0 42 0 50 0 8 1 24 1 35 1 26 -1 32 -1 83 2 23 2 42 1 42 -2 0 -7 260 -3 267
4 3 2 15 1 28 -4 13 -5 26 -6 29 -2 8 7 113 5 126 -3 6 -4 10 -2 10 3 0 5 17
6 38 3 20 -4 46 -6 57 -5 24 3 63 4 90 4 11 0 46 0 77 1 31 0 61 -1 65 -4 5
-3 15 -2 23 3 7 4 23 5 35 0 12 -5 28 -5 35 0 7 5 23 4 36 0 12 -5 25 -6 29
-2 3 3 21 5 38 4 57 -5 168 18 225 47 58 29 142 105 142 127 0 7 4 14 9 16 6
2 18 23 29 48 l19 45 404 1 c222 1 426 4 454 8 67 9 163 34 197 52 15 8 28 12
28 9 0 -7 79 37 153 87 114 76 226 208 288 338 91 194 108 418 46 628 -70 235
-271 455 -495 541 -26 10 -56 21 -67 26 -23 9 -28 11 -70 18 -16 3 -41 9 -55
12 -14 4 -211 8 -437 9 -227 1 -415 5 -419 8 -8 9 -11 209 -3 214 8 4 -6 62
-17 73 -3 3 -61 6 -128 7 -67 0 -127 4 -133 7 -7 5 -11 52 -11 131 l1 125 124
-2 c105 -2 127 1 139 15 14 14 15 135 15 960 0 518 -3 954 -5 968 -3 14 -8 39
-11 55 -13 65 -52 139 -101 191 -41 44 -138 96 -204 110 -19 4 -615 8 -1325 9
-1241 2 -1293 1 -1360 -17z m2457 -257 c15 0 40 -12 55 -26 l28 -25 -38 19
c-40 20 -44 20 -677 20 -118 0 -352 0 -520 1 -616 0 -640 0 -650 -10 -3 -3
-14 -10 -25 -15 -11 -6 -31 -34 -45 -63 -14 -29 -28 -52 -32 -52 -9 0 47 114
64 128 8 6 32 15 54 20 30 6 1660 9 1786 3z m-2010 -142 c-4 -4 -51 -9 -104
-12 -57 -4 -109 -12 -126 -21 -33 -17 -74 -91 -74 -133 0 -15 -3 -20 -8 -13
-8 13 11 86 32 119 27 43 107 66 235 66 29 0 49 -3 45 -6z m33 1 c3 -5 1 -10
-4 -10 -6 0 -11 5 -11 10 0 6 2 10 4 10 3 0 8 -4 11 -10z m-338 -280 c1 -27
-2 -48 -6 -46 -4 3 -6 22 -5 43 3 51 4 53 7 53 2 0 4 -22 4 -50z m3 -70 c0 -5
-5 -10 -11 -10 -5 0 -7 5 -4 10 3 6 8 10 11 10 2 0 4 -4 4 -10z m-3 -132 c-3
-7 -5 -2 -5 12 0 14 2 19 5 13 2 -7 2 -19 0 -25z m0 -40 c-3 -8 -6 -5 -6 6 -1
11 2 17 5 13 3 -3 4 -12 1 -19z m1 -44 c0 -17 -3 -22 -8 -13 -5 6 -6 18 -3 26
8 19 11 16 11 -13z m-1 -86 c2 -17 0 -19 -7 -8 -5 8 -6 18 -4 22 8 12 10 10
11 -14z m3 -103 c0 -8 -2 -15 -4 -15 -2 0 -6 7 -10 15 -3 8 -1 15 4 15 6 0 10
-7 10 -15z m0 -40 c0 -8 -2 -15 -4 -15 -2 0 -6 7 -10 15 -3 8 -1 15 4 15 6 0
10 -7 10 -15z m0 -40 c0 -8 -2 -15 -4 -15 -2 0 -6 7 -10 15 -3 8 -1 15 4 15 6
0 10 -7 10 -15z m0 -35 c0 -5 -4 -10 -10 -10 -5 0 -10 5 -10 10 0 6 5 10 10
10 6 0 10 -4 10 -10z m-2 -46 c0 -17 -3 -22 -8 -13 -5 6 -6 18 -3 26 8 19 11
16 11 -13z m-1 -56 c2 -17 0 -19 -7 -8 -5 8 -6 18 -4 22 8 12 10 10 11 -14z
m3 -103 c0 -8 -2 -15 -4 -15 -2 0 -6 7 -10 15 -3 8 -1 15 4 15 6 0 10 -7 10
-15z m0 -41 c0 -8 -4 -12 -10 -9 -5 3 -10 10 -10 16 0 5 5 9 10 9 6 0 10 -7
10 -16z m0 -34 c0 -5 -5 -10 -11 -10 -5 0 -7 5 -4 10 3 6 8 10 11 10 2 0 4 -4
4 -10z m-3 -69 c0 -11 -5 -18 -9 -15 -4 3 -5 11 -1 19 7 21 12 19 10 -4z m3
-52 c0 -11 -4 -18 -10 -14 -5 3 -7 12 -3 20 7 21 13 19 13 -6z m0 -44 c0 -8
-2 -15 -4 -15 -2 0 -6 7 -10 15 -3 8 -1 15 4 15 6 0 10 -7 10 -15z m1920 11
c0 -3 -4 -8 -10 -11 -5 -3 -10 -1 -10 4 0 6 5 11 10 11 6 0 10 -2 10 -4z m597
-862 c-3 -3 -12 -4 -19 -1 -8 3 -5 6 6 6 11 1 17 -2 13 -5z m-1923 -293 c-2
-3 -21 -6 -41 -8 -49 -4 -95 -41 -114 -94 -14 -39 -20 -44 -47 -45 -17 -1 -29
2 -27 6 3 4 16 5 30 2 20 -3 25 0 25 15 0 25 25 75 47 96 10 8 34 19 52 24 38
10 83 12 75 4z m49 2 c-7 -2 -19 -2 -25 0 -7 3 -2 5 12 5 14 0 19 -2 13 -5z
m44 1 c-3 -3 -12 -4 -19 -1 -8 3 -5 6 6 6 11 1 17 -2 13 -5z m87 -5 c-4 -7
-44 0 -44 7 0 2 11 3 24 2 14 -1 23 -5 20 -9z m60 0 c-4 -7 -44 0 -44 7 0 2
11 3 24 2 14 -1 23 -5 20 -9z m60 0 c-4 -7 -44 0 -44 7 0 2 11 3 24 2 14 -1
23 -5 20 -9z m80 -1 c-3 -4 -11 -5 -19 -1 -21 7 -19 12 4 10 11 0 18 -5 15 -9z
m80 0 c-3 -4 -11 -5 -19 -1 -21 7 -19 12 4 10 11 0 18 -5 15 -9z m80 0 c-3 -4
-11 -5 -19 -1 -21 7 -19 12 4 10 11 0 18 -5 15 -9z m80 0 c-3 -4 -11 -5 -19
-1 -21 7 -19 12 4 10 11 0 18 -5 15 -9z m80 0 c-3 -4 -11 -5 -19 -1 -21 7 -19
12 4 10 11 0 18 -5 15 -9z m80 0 c-3 -4 -11 -5 -19 -1 -21 7 -19 12 4 10 11 0
18 -5 15 -9z m80 0 c-3 -4 -11 -5 -19 -1 -21 7 -19 12 4 10 11 0 18 -5 15 -9z
m120 1 c-4 -7 -44 0 -44 7 0 2 11 3 24 2 14 -1 23 -5 20 -9z m60 0 c-4 -7 -44
0 -44 7 0 2 11 3 24 2 14 -1 23 -5 20 -9z m49 4 c-7 -2 -19 -2 -25 0 -7 3 -2
5 12 5 14 0 19 -2 13 -5z m44 1 c-3 -3 -12 -4 -19 -1 -8 3 -5 6 6 6 11 1 17
-2 13 -5z m87 -5 c-4 -7 -44 0 -44 7 0 2 11 3 24 2 14 -1 23 -5 20 -9z m60 0
c-4 -7 -44 0 -44 7 0 2 11 3 24 2 14 -1 23 -5 20 -9z m49 4 c-7 -2 -19 -2 -25
0 -7 3 -2 5 12 5 14 0 19 -2 13 -5z m44 1 c-3 -3 -12 -4 -19 -1 -8 3 -5 6 6 6
11 1 17 -2 13 -5z m87 -5 c-4 -7 -44 0 -44 7 0 2 11 3 24 2 14 -1 23 -5 20 -9z
m60 0 c-4 -7 -44 0 -44 7 0 2 11 3 24 2 14 -1 23 -5 20 -9z m60 0 c-4 -7 -44
0 -44 7 0 2 11 3 24 2 14 -1 23 -5 20 -9z m71 1 c3 -6 -1 -7 -9 -4 -18 7 -21
14 -7 14 6 0 13 -4 16 -10z m55 6 c0 -3 -4 -8 -10 -11 -5 -3 -10 -1 -10 4 0 6
5 11 10 11 6 0 10 -2 10 -4z m-2015 -148 l70 -2 -90 -5 c-143 -9 -669 -5 -687
5 -14 8 446 9 707 2z m-830 -8 c3 -5 -1 -10 -10 -10 -9 0 -13 5 -10 10 3 6 8
10 10 10 2 0 7 -4 10 -10z m80 0 c-26 -11 -35 -12 -35 -2 0 4 12 8 28 9 23 1
24 1 7 -7z m-116 -14 c-12 -10 -59 -15 -59 -6 0 6 3 9 8 7 4 -3 16 -1 27 3 19
7 34 5 24 -4z m-69 -11 c0 -2 -36 -21 -80 -41 -44 -20 -80 -41 -80 -45 0 -5
-6 -9 -14 -9 -21 0 -151 -125 -183 -176 -15 -24 -31 -44 -36 -44 -13 0 63 101
111 147 55 54 141 112 202 138 25 10 49 22 55 27 10 9 25 11 25 3z m-407 -342
c-3 -10 -9 -22 -13 -28 -11 -16 -52 -127 -56 -155 -3 -14 -9 -39 -14 -55 -10
-30 -10 -30 -5 5 10 70 25 116 64 203 21 45 37 65 24 30z m5231 -259 c3 -8 2
-12 -4 -9 -6 3 -10 10 -10 16 0 14 7 11 14 -7z m-5485 -38 c-3 -3 -11 5 -18
17 -13 21 -12 21 5 5 10 -10 16 -20 13 -22z m4617 -21 c-1 -8 -5 -17 -8 -21
-5 -4 -4 16 1 34 3 9 9 -1 7 -13z m874 11 c0 -3 -4 -8 -10 -11 -5 -3 -10 -1
-10 4 0 6 5 11 10 11 6 0 10 -2 10 -4z m-5488 -62 c-5 -9 -8 -1 -9 23 -1 33 0
35 8 15 5 -13 5 -30 1 -38z m155 9 c-3 -10 -5 -4 -5 12 0 17 2 24 5 18 2 -7 2
-21 0 -30z m5326 12 c-3 -9 -8 -14 -10 -11 -3 3 -2 9 2 15 9 16 15 13 8 -4z
m-867 -25 c0 -12 -4 -16 -9 -11 -5 5 -6 14 -3 20 10 15 12 14 12 -9z m-4627
-42 c-6 -13 -25 -34 -42 -48 -29 -23 -29 -21 8 22 22 26 41 47 42 48 2 0 -2
-10 -8 -22z m175 -4 c3 -8 2 -12 -4 -9 -6 3 -10 10 -10 16 0 14 7 11 14 -7z
m4482 -71 c-4 -4 -36 73 -35 85 0 4 9 -13 20 -37 11 -24 18 -46 15 -48z m827
52 c-3 -9 -8 -14 -10 -11 -3 3 -2 9 2 15 9 16 15 13 8 -4z m-785 -96 c13 -16
20 -29 15 -28 -4 0 -18 13 -31 30 -13 16 -20 29 -15 28 4 0 18 -13 31 -30z
m-4500 -4 c-3 -3 -9 2 -12 12 -6 14 -5 15 5 6 7 -7 10 -15 7 -18z m4677 -95
c49 -7 49 -8 10 -9 -37 0 -125 30 -125 44 0 3 14 -2 32 -11 18 -9 55 -20 83
-24z"/>
</g>
</svg>
