<?xml version="1.0" encoding="utf-8"?>
<!-- Generator: Adobe Illustrator 22.0.0, SVG Export Plug-In . SVG Version: 6.00 Build 0)  -->
<svg version="1.1" id="Capa_1" xmlns="http://www.w3.org/2000/svg" xmlns:xlink="http://www.w3.org/1999/xlink" x="0px" y="0px"
	 viewBox="0 0 127 68" style="enable-background:new 0 0 127 68;" xml:space="preserve">
<style type="text/css">
	.st0{fill:#D04832;}
	.st1{fill:#3A4950;}
	.st2{fill:#566F7B;}
	.st3{fill:#CE3929;}
	.st4{fill:#A3C64D;}
	.st5{fill:#D57A5B;}
	.st6{fill:#91A4AE;}
	.st7{fill:#273338;}
	.st8{fill:#CF422A;}
	.st9{fill:#29343A;}
	.st10{fill:#D87555;}
	.st11{fill:#556F7A;}
	.st12{fill:#BDDDF6;}
	.st13{fill:#E9ECEE;}
	.st14{fill:#A3C64C;}
</style>
<g>
	<path class="st0" d="M47.2,32.2c-0.9,0-1.8-0.1-2.7,0c-0.7,0-1-0.2-1-0.9c0-4.6,0-9.2,0-13.9c0-2.7,0-5.5,0-8.2
		c0-3.8,2-5.8,5.9-5.8c9.9,0,19.8,0,29.7,0c3.8,0,5.8,2,5.8,5.9c0,7.3,0,14.6,0,22c0,0.8-0.2,1.1-1,1c-0.9-0.1-1.8,0-2.7,0
		c-0.1,0-0.1,0-0.2,0c-0.3-0.3-0.7-0.2-1-0.2c-10.6,0-21.1,0-31.7,0c-0.3,0-0.7-0.1-1,0.2C47.4,32.2,47.3,32.2,47.2,32.2z M49,10.4
		c-0.2,0.2-0.2,0.5-0.2,0.8c0,4.4,0,8.7,0,13.1c0,0.3-0.1,0.6,0.2,0.8c0.5,1.2,0.9,1.5,2.1,1.5c1.1,0,2.1,0,3.2,0
		c0.4,1.4,0.9,1.8,2.2,1.8c6.9,0,13.9,0,20.8,0c1.5,0,2.2-0.7,2.2-2.2c0-5.7,0-11.5,0-17.2c0-1.5-0.7-2.2-2.2-2.2
		c-6.9,0-13.8,0-20.6,0c-1.6,0-1.9,0.3-2.4,1.8c-1.1,0-2.2,0-3.2,0C49.9,8.7,49.3,9.2,49,10.4z"/>
	<path class="st0" d="M84.8,60.9c-0.1,0.1-0.2,0.2-0.2,0.3c-0.9,2.3-2.7,3.3-5.2,3.3c-9.7,0-19.5,0-29.2,0c-2.2,0-4.5,0-6.7-0.1
		c0-1.8,0-3.5,0-5.3c3.6,0,7.2,0,10.8,0c0.5,1.5,0.8,1.8,2.4,1.8c6.8,0,13.6,0,20.4,0c1.8,0,2.4-0.6,2.4-2.4c0-5.6,0-11.2,0-16.8
		c0-1.7-0.7-2.4-2.4-2.4c-6.8,0-13.7,0-20.5,0c-1.5,0-2,0.4-2.3,1.8c-1.2,0-2.4,0-3.6,0c-2.4,0-4.7,0.1-7.1-0.1c0-1.5,0-3,0-4.5
		c0-0.5,0.1-0.8,0.6-0.9c1,0,2,0,3-0.1c0.1,0,0.2,0,0.3,0c0.3,0.3,0.7,0.2,1,0.2c10.6,0,21.1,0,31.7,0c0.3,0,0.7,0.1,1-0.2l0.1,0
		l0.1,0c0.9,0,1.8,0.1,2.6,0c0.8,0,1.1,0.2,1,1c-0.1,0.9,0,1.8,0,2.6c0,0.4,0,0.8,0,1.1c0,5.6,0,11.1,0,16.7
		C85,58.4,85,59.7,84.8,60.9z"/>
	<path class="st1" d="M84.8,60.9c0.3-1.3,0.2-2.5,0.2-3.8c0-5.6,0-11.1,0-16.7c0-0.4,0-0.8,0-1.1c3,0,6,0,9.1,0
		c6,0.1,10.8,4.9,10.7,10.9c0,5.7-4.6,10.5-10.3,10.7C91.3,61,88,60.9,84.8,60.9z M86.9,50.1c-0.2,3.9,3.4,7.2,7.1,7.2
		c4,0,7.2-3.2,7.3-7.3c0-3.8-3.3-7.1-7.1-7.1C90,43,86.7,46.2,86.9,50.1z"/>
	<path class="st2" d="M43.5,59.2c0,1.8,0,3.5,0,5.3c-5.1,0-9.1-2.3-11.9-6.4c-1.3-1.8-2-3.9-2.2-6.1c0.5,0,1.1,0,1.6,0
		c1.1-0.1,1.8-0.7,1.8-1.8c0-1.1-0.7-1.8-1.8-1.9c-0.5,0-1.1,0-1.6,0c0.8-5.7,4-9.5,9.3-11.7c1.5-0.6,3.2-0.9,4.8-0.8
		c0,1.8,0,3.6,0,5.3c-0.5,0.1-1.1,0.1-1.6,0.2c-4.5,0.9-7.6,5.2-7.2,9.7C35.1,55.5,39,59.1,43.5,59.2z"/>
	<path class="st3" d="M47.5,35.7c-0.1,0-0.2,0-0.3,0c0-1.2,0-2.3,0-3.5c0.1,0,0.2,0,0.3,0c11.2,0,22.4,0,33.7,0c0.1,0,0.1,0,0.2,0
		c0,1.1,0,2.3,0,3.4l-0.1,0c0,0-0.1,0-0.1,0C69.9,35.7,58.7,35.7,47.5,35.7z"/>
	<path class="st4" d="M29.3,48.3c0.5,0,1.1,0,1.6,0c1.1,0.1,1.8,0.8,1.8,1.9c0,1-0.7,1.7-1.8,1.8c-0.5,0-1.1,0-1.6,0
		C29,50.7,29,49.5,29.3,48.3z"/>
	<path class="st5" d="M43.5,41.1c0-1.8,0-3.6,0-5.3c0.2-0.1,0.5-0.1,0.8,0c-0.5,0.1-0.6,0.4-0.6,0.9c0,1.5,0,3,0,4.5
		C43.6,41.1,43.6,41.1,43.5,41.1z"/>
	<path class="st6" d="M54.4,8.7C54.8,7.3,55.2,7,56.7,7c6.9,0,13.8,0,20.6,0c1.6,0,2.2,0.6,2.2,2.2c0,5.7,0,11.5,0,17.2
		c0,1.5-0.7,2.2-2.2,2.2c-6.9,0-13.9,0-20.8,0c-1.4,0-1.9-0.4-2.2-1.8C54.4,20.7,54.4,14.7,54.4,8.7z M67,25c2.7,0,5.4,0,8.1,0
		c0.6,0,0.9-0.1,0.9-0.8c0-4.3,0-8.5,0-12.8c0-0.6-0.2-0.8-0.8-0.8c-5.5,0-10.9,0-16.4,0c-0.6,0-0.8,0.2-0.8,0.8c0,4.2,0,8.5,0,12.7
		c0,0.7,0.2,0.9,0.9,0.9C61.6,24.9,64.3,25,67,25z"/>
	<path class="st7" d="M54.4,8.7c0,6,0,12,0,18c-1.1,0-2.1,0-3.2,0c-1.3,0-1.7-0.3-2.1-1.5c0-4.9,0-9.8,0-14.7
		c0.4-1.3,0.9-1.7,2.1-1.7C52.2,8.7,53.3,8.7,54.4,8.7z"/>
	<path class="st5" d="M81.1,32.2c-11.2,0-22.4,0-33.7,0c0.3-0.3,0.7-0.2,1-0.2c10.6,0,21.1,0,31.7,0C80.5,32,80.9,31.9,81.1,32.2z"
		/>
	<path class="st8" d="M49,10.4c0,4.9,0,9.8,0,14.7c-0.2-0.2-0.2-0.5-0.2-0.8c0-4.4,0-8.7,0-13.1C48.8,11,48.8,10.7,49,10.4z"/>
	<path class="st6" d="M54.4,41.2c0.4-1.4,0.9-1.8,2.3-1.8c6.8,0,13.7,0,20.5,0c1.7,0,2.4,0.7,2.4,2.4c0,5.6,0,11.2,0,16.8
		c0,1.8-0.6,2.4-2.4,2.4c-6.8,0-13.6,0-20.4,0c-1.6,0-1.9-0.3-2.4-1.8C54.4,53.2,54.4,47.2,54.4,41.2z M66.9,57.3c2.7,0,5.5,0,8.2,0
		c0.6,0,0.8-0.1,0.8-0.8c0-4.3,0-8.5,0-12.8c0-0.6-0.2-0.8-0.8-0.8c-5.4,0-10.9,0-16.3,0c-0.6,0-0.8,0.1-0.8,0.8c0,4.3,0,8.5,0,12.8
		c0,0.6,0.2,0.8,0.8,0.8C61.5,57.3,64.2,57.3,66.9,57.3z"/>
	<path class="st9" d="M54.4,41.2c0,6,0,12,0,18c-3.6,0-7.2,0-10.8,0c-4.6-0.1-8.4-3.6-8.8-8.1c-0.4-4.6,2.7-8.8,7.2-9.7
		c0.5-0.1,1.1-0.1,1.6-0.2c0.1,0,0.1,0,0.1,0c2.4,0.2,4.7,0,7.1,0.1C52,41.2,53.2,41.2,54.4,41.2z M50.8,50.1c0-1.8,0-1.8-1.7-1.8
		c-1.8,0-1.8,0-1.8-1.8c0-1.8,0-1.8-1.7-1.8c-1.9,0-1.9,0-1.9,1.8c0,1.8,0,1.8-1.7,1.8c-1.9,0-1.9,0-1.9,1.9c0,1.7,0,1.7,1.7,1.7
		c1.8,0,1.8,0,1.8,1.8c0,1.8,0,1.8,1.8,1.8c1.8,0,1.8,0,1.8-1.8c0-1.8,0-1.8,1.8-1.8C50.8,51.9,50.8,51.9,50.8,50.1z"/>
	<path class="st10" d="M47.5,35.7c11.2,0,22.4,0,33.7,0c-0.3,0.3-0.7,0.2-1,0.2c-10.6,0-21.1,0-31.7,0C48.1,35.8,47.8,36,47.5,35.7z
		"/>
	<path class="st11" d="M86.9,50.1c-0.1-3.9,3.1-7.1,7.2-7.2c3.8,0,7.2,3.3,7.1,7.1c0,4.1-3.2,7.2-7.3,7.3
		C90.2,57.3,86.6,54,86.9,50.1z M97.6,50.2c0-2.1-1.5-3.6-3.6-3.6c-2,0-3.7,1.6-3.7,3.6c0,1.9,1.7,3.7,3.6,3.7
		C95.9,53.8,97.6,52.2,97.6,50.2z"/>
	<path class="st12" d="M67,25c-2.7,0-5.4,0-8.1,0c-0.7,0-0.9-0.2-0.9-0.9c0-4.2,0-8.5,0-12.7c0-0.6,0.2-0.8,0.8-0.8
		c5.5,0,10.9,0,16.4,0c0.6,0,0.8,0.2,0.8,0.8c0,4.3,0,8.5,0,12.8c0,0.7-0.3,0.8-0.9,0.8C72.4,24.9,69.7,25,67,25z"/>
	<path class="st12" d="M66.9,57.3c-2.7,0-5.4,0-8.1,0c-0.6,0-0.8-0.2-0.8-0.8c0-4.3,0-8.5,0-12.8c0-0.7,0.2-0.8,0.8-0.8
		c5.4,0,10.9,0,16.3,0c0.6,0,0.8,0.1,0.8,0.8c0,4.3,0,8.5,0,12.8c0,0.6-0.2,0.8-0.8,0.8C72.4,57.3,69.7,57.3,66.9,57.3z"/>
	<path class="st13" d="M50.8,50.1c0,1.8,0,1.8-1.8,1.8c-1.8,0-1.8,0-1.8,1.8c0,1.8,0,1.8-1.8,1.8c-1.8,0-1.8,0-1.8-1.8
		c0-1.8,0-1.8-1.8-1.8c-1.7,0-1.7,0-1.7-1.7c0-1.9,0-1.9,1.9-1.9c1.7,0,1.7,0,1.7-1.8c0-1.8,0-1.8,1.9-1.8c1.7,0,1.7,0,1.7,1.8
		c0,1.8,0,1.8,1.8,1.8C50.8,48.3,50.8,48.3,50.8,50.1z"/>
	<path class="st14" d="M97.6,50.2c0,2-1.7,3.7-3.6,3.6c-2,0-3.6-1.7-3.6-3.7c0-2,1.7-3.6,3.7-3.6C96.1,46.6,97.6,48.1,97.6,50.2z"/>
</g>
</svg>
